HIERARCHY
ROOT Hips
{
	OFFSET 0.000000 0.000000 0.000000
	CHANNELS 6 Xposition Yposition Zposition Zrotation Yrotation Xrotation 
	JOINT LHipJoint
	{
		OFFSET 0.000000 0.000000 0.000000
		CHANNELS 3 Zrotation Yrotation Xrotation
		JOINT LeftUpLeg
		{
			OFFSET 1.363060 -1.794630 0.839290
			CHANNELS 3 Zrotation Yrotation Xrotation
			JOINT LeftLeg
			{
				OFFSET 2.448110 -6.726130 0.000000
				CHANNELS 3 Zrotation Yrotation Xrotation
				JOINT LeftFoot
				{
					OFFSET 2.562200 -7.039590 0.000000
					CHANNELS 3 Zrotation Yrotation Xrotation
					JOINT LeftToeBase
					{
						OFFSET 0.157640 -0.433110 2.322550
						CHANNELS 3 Zrotation Yrotation Xrotation
						End Site
						{
							OFFSET 0.000000 0.000000 0.000000
						}
					}
				}
			}
		}
	}
	JOINT RHipJoint
	{
		OFFSET 0.000000 0.000000 0.000000
		CHANNELS 3 Zrotation Yrotation Xrotation
		JOINT RightUpLeg
		{
			OFFSET -1.305520 -1.794630 0.839290
			CHANNELS 3 Zrotation Yrotation Xrotation
			JOINT RightLeg
			{
				OFFSET -2.542530 -6.985550 0.000000
				CHANNELS 3 Zrotation Yrotation Xrotation
				JOINT RightFoot
				{
					OFFSET -2.568260 -7.056230 0.000000
					CHANNELS 3 Zrotation Yrotation Xrotation
					JOINT RightToeBase
					{
						OFFSET -0.164730 -0.452590 2.363150
						CHANNELS 3 Zrotation Yrotation Xrotation
						End Site
						{
							OFFSET 0.000000 0.000000 0.000000
						}
					}
				}
			}
		}
	}
	JOINT LowerBack
	{
		OFFSET 0.000000 0.000000 0.000000
		CHANNELS 3 Zrotation Yrotation Xrotation
		JOINT Spine
		{
			OFFSET 0.028270 2.035590 -0.193380
			CHANNELS 3 Zrotation Yrotation Xrotation
			JOINT Spine1
			{
				OFFSET 0.056720 2.048850 -0.042750
				CHANNELS 3 Zrotation Yrotation Xrotation
				JOINT Neck
				{
					OFFSET 0.000000 0.000000 0.000000
					CHANNELS 3 Zrotation Yrotation Xrotation
					JOINT Neck1
					{
						OFFSET -0.054170 1.746240 0.172020
						CHANNELS 3 Zrotation Yrotation Xrotation
						JOINT Head
						{
							OFFSET 0.104070 1.761360 -0.123970
							CHANNELS 3 Zrotation Yrotation Xrotation
							End Site
							{
								OFFSET 0.000000 0.000000 0.000000
							}
						}
					}
				}
				JOINT LeftShoulder
				{
					OFFSET 0.000000 0.000000 0.000000
					CHANNELS 3 Zrotation Yrotation Xrotation
					JOINT LeftArm
					{
						OFFSET 3.362410 1.200890 -0.311210
						CHANNELS 3 Zrotation Yrotation Xrotation
						JOINT LeftForeArm
						{
							OFFSET 4.983000 -0.000000 -0.000000
							CHANNELS 3 Zrotation Yrotation Xrotation
							JOINT LeftHand
							{
								OFFSET 3.483560 -0.000000 -0.000000
								CHANNELS 3 Zrotation Yrotation Xrotation
								JOINT LeftFingerBase
								{
									OFFSET 0.000000 0.000000 0.000000
									CHANNELS 3 Zrotation Yrotation Xrotation
									JOINT LeftHandIndex1
									{
										OFFSET 0.715260 -0.000000 -0.000000
										CHANNELS 3 Zrotation Yrotation Xrotation
										End Site
										{
											OFFSET 0.000000 0.000000 0.000000
										}
									}
								}
								JOINT LThumb
								{
									OFFSET 0.000000 0.000000 0.000000
									CHANNELS 3 Zrotation Yrotation Xrotation
									End Site
									{
										OFFSET 0.000000 0.000000 0.000000
									}
								}
							}
						}
					}
				}
				JOINT RightShoulder
				{
					OFFSET 0.000000 0.000000 0.000000
					CHANNELS 3 Zrotation Yrotation Xrotation
					JOINT RightArm
					{
						OFFSET -3.136600 1.374050 -0.404650
						CHANNELS 3 Zrotation Yrotation Xrotation
						JOINT RightForeArm
						{
							OFFSET -5.241900 -0.000000 -0.000000
							CHANNELS 3 Zrotation Yrotation Xrotation
							JOINT RightHand
							{
								OFFSET -3.444170 -0.000000 -0.000000
								CHANNELS 3 Zrotation Yrotation Xrotation
								JOINT RightFingerBase
								{
									OFFSET 0.000000 0.000000 0.000000
									CHANNELS 3 Zrotation Yrotation Xrotation
									JOINT RightHandIndex1
									{
										OFFSET -0.622530 -0.000000 -0.000000
										CHANNELS 3 Zrotation Yrotation Xrotation
										End Site
										{
											OFFSET 0.000000 0.000000 0.000000
										}
									}
								}
								JOINT RThumb
								{
									OFFSET 0.000000 0.000000 0.000000
									CHANNELS 3 Zrotation Yrotation Xrotation
									End Site
									{
										OFFSET 0.000000 0.000000 0.000000
									}
								}
							}
						}
					}
				}
			}
		}
	}
}
MOTION
Frames: 7
Frame Time: 0.008333
0.939903 17.496618 -23.009548 4.603271 9.689239 3.792601 2.017630 1.188615 0.046651 -32.395204 -0.143142 11.746520 -0.047577 2.498637 7.718655 1.180102 -10.625776 -5.083716 0.794100 5.688200 15.882300 -3.899358 -1.395017 0.308390 13.341041 11.609949 -31.473845 -1.093233 -6.519123 17.482699 0.720191 -12.534215 -16.019129 -0.116400 2.199700 -6.058000 -6.659654 -3.608290 7.870727 -0.018595 -5.448015 -2.816243 4.237741 -2.719363 -5.302188 -3.526442 -0.157748 -13.343493 3.791870 0.132646 11.235567 0.509100 0.059700 7.928500 1.037199 4.116818 -0.870077 -87.571106 -8.573412 39.297807 22.115441 -33.842537 -6.516621 0.462777 0.167185 3.926802 5.210905 39.929399 3.048200 -7.125000 0.000000 0.000000 -39.983300 65.560900 -21.352700 -0.651845 -4.414576 -1.775699 87.328499 3.541206 2.068422 -14.489401 25.652879 -3.096591 1.031838 0.142284 -11.434234 -9.392852 26.627705 -4.714300 7.125000 0.000000 0.000000 11.704600 -3.466600 11.215900 
0.938890 17.483959 -22.896023 4.293564 9.576721 3.755038 2.018724 1.200868 0.061429 -32.024003 0.041563 12.019704 -0.051106 2.487239 7.702938 1.182337 -10.503441 -5.209129 0.608400 4.992600 13.887400 -3.906842 -1.404160 0.306668 14.057884 11.386596 -31.543764 -1.135828 -6.667993 17.912349 0.733393 -12.547455 -15.909178 -0.077300 1.793300 -4.934900 -6.291022 -3.544349 8.107848 -0.008318 -5.350640 -2.885224 4.091930 -2.658064 -5.665739 -3.460987 -0.188609 -13.214334 3.761037 0.067989 11.165396 0.480100 0.028400 7.893400 1.040901 4.094413 -0.877743 -87.543659 -8.361592 39.216144 21.863494 -33.525325 -6.373258 0.461711 0.162515 4.862765 4.666410 39.686293 2.687100 -7.125000 0.000000 0.000000 -40.150400 65.219200 -21.146000 -0.643995 -4.397286 -1.787969 87.297930 3.114895 2.252484 -14.480286 25.604562 -3.083418 1.031982 0.152144 -11.737329 -9.634520 26.652222 -4.829300 7.125000 0.000000 0.000000 11.560200 -3.419500 11.081800 
0.935346 17.480921 -22.770952 4.542270 9.656037 3.805031 2.015096 1.194535 0.070909 -32.223982 -0.129453 11.935839 0.008858 2.918400 8.884236 1.222613 -10.477161 -5.745325 0.619800 5.038200 14.017600 -3.907788 -1.397736 0.265374 14.170041 10.969291 -31.226505 -1.142989 -6.661554 17.921310 0.732999 -12.534785 -15.849935 -0.030000 1.117800 -3.073100 -6.514535 -3.645664 8.027635 -0.006168 -5.492539 -2.828766 4.223058 -2.736796 -5.451575 -3.836712 -0.044083 -12.875986 4.342671 0.282658 10.859129 0.790000 0.159900 7.671700 1.032280 4.126961 -0.857732 -87.608978 -8.462118 39.131183 21.536500 -33.166824 -6.205608 0.465235 0.155086 4.998919 5.015608 38.877926 2.858300 -7.125000 0.000000 0.000000 -38.666300 64.710100 -19.807100 -0.662684 -4.395942 -1.762319 87.258865 3.263681 1.934143 -14.369073 25.476727 -3.041838 1.032536 0.107236 -11.497905 -8.476929 26.953007 -4.345800 7.125000 0.000000 0.000000 12.268000 -3.213300 11.840000 
0.925219 17.470794 -22.654186 4.059131 9.743587 3.912379 2.010056 1.206829 0.081076 -31.556241 -0.205374 12.180245 0.018559 2.958254 9.010035 1.236246 -10.560580 -5.814791 0.629300 5.076100 14.125800 -3.930118 -1.416248 0.256835 15.186811 10.584035 -31.444200 -1.198642 -6.832176 18.409724 0.765907 -12.463737 -15.130578 -0.075000 1.766800 -4.861700 -5.976337 -3.648576 8.128763 0.050907 -5.446265 -2.830171 4.091314 -2.722624 -5.498541 -3.397168 -0.058585 -13.417349 3.814175 0.230732 11.096141 0.504400 0.112600 7.902600 1.046247 4.098636 -0.871130 -87.670316 -8.634913 38.912673 21.081508 -32.623878 -5.954971 0.470112 0.144871 5.769552 5.301477 38.581254 3.016600 -7.125000 0.000000 0.000000 -37.982500 64.564700 -19.281800 -0.628175 -4.406993 -1.777144 87.262318 3.580656 1.285582 -14.093139 25.047224 -2.907487 1.032995 0.091631 -11.110501 -8.373205 26.958170 -4.298900 7.125000 0.000000 0.000000 12.331200 -3.211200 11.904400 
0.902230 17.471908 -22.547850 3.348828 9.715494 3.932704 2.035970 1.214243 0.076369 -30.668115 -0.197911 12.237273 0.018698 2.954416 9.024870 1.200990 -10.375326 -5.485774 0.552600 4.761800 13.230400 -3.943230 -1.397258 0.258174 16.084234 11.296930 -31.227496 -1.240325 -7.040194 18.981915 0.770837 -12.638707 -15.761874 -0.011300 0.687300 -1.888700 -4.856799 -3.839683 8.408212 -0.038615 -5.594365 -2.857781 3.226597 -2.822595 -5.814325 -2.968253 0.149137 -13.439850 4.141465 0.370103 11.030240 0.581800 0.237600 7.892000 1.015627 4.090864 -0.898612 -86.912946 -8.461905 38.445038 20.939579 -32.401161 -5.853608 0.474740 0.148696 5.760496 5.266794 38.889093 3.012100 -7.125000 0.000000 0.000000 -38.440900 64.787900 -19.743400 -0.626979 -4.388369 -1.766329 88.058256 3.368592 1.318526 -14.078053 25.015266 -2.904719 1.030741 0.093221 -10.903202 -8.642910 26.929169 -4.417800 7.125000 0.000000 0.000000 12.170800 -3.216100 11.740900 
0.923497 17.448210 -22.384398 4.475550 9.773848 4.022089 2.016482 1.209631 0.081523 -31.881279 -0.132728 12.789289 0.048645 3.104661 9.439514 1.212183 -10.474928 -5.614040 0.453400 4.319600 11.977700 -3.913326 -1.420293 0.198243 15.596421 9.529320 -31.342269 -1.353843 -7.193420 19.528453 0.594192 -10.959585 -14.398953 -0.033500 1.182100 -3.249900 -6.325146 -3.827663 8.042995 0.057265 -5.696863 -2.722222 4.270771 -2.867163 -5.054484 -3.502993 0.109626 -13.843479 3.808078 0.502846 10.994454 0.548900 0.230400 7.934800 1.036235 4.121648 -0.859355 -87.968284 -8.855075 37.796532 20.290111 -31.680599 -5.509878 0.474816 0.147656 6.827729 4.144510 39.283498 2.328900 -7.125000 0.000000 0.000000 -40.085600 64.763400 -20.692900 -0.635873 -4.438889 -1.770336 87.132782 3.794633 1.507359 -13.919639 24.794168 -2.828764 1.038989 0.086355 -11.456297 -8.033731 27.018697 -4.154300 7.125000 0.000000 0.000000 12.532500 -3.175600 12.117000 
0.914281 17.438184 -22.246466 4.669942 10.004167 4.107891 2.029025 1.214970 0.091976 -31.947440 -0.277810 13.264741 0.064891 3.189459 9.691480 1.220618 -10.471306 -5.734759 0.409900 4.109900 11.386200 -3.898978 -1.425933 0.177491 15.775860 9.066896 -31.225722 -1.432079 -7.367173 20.070013 0.558809 -10.431248 -13.662630 -0.071000 1.719000 -4.729600 -6.414662 -3.887983 8.192731 -0.021188 -5.803736 -2.756679 4.088861 -2.910301 -5.216227 -3.112216 0.044748 -13.936393 3.647259 0.332621 11.051579 0.390500 0.161100 7.993000 1.025549 4.111029 -0.872020 -87.840458 -8.714170 37.406569 19.837624 -31.109735 -5.274611 0.479478 0.134746 7.298102 4.911087 38.519924 2.765600 -7.125000 0.000000 0.000000 -38.286900 64.403900 -19.317400 -0.622061 -4.442535 -1.773018 87.376510 3.662518 0.963941 -13.701548 24.441252 -2.720553 1.042542 0.069312 -11.062616 -7.981305 27.163398 -4.152100 7.125000 0.000000 0.000000 12.568600 -3.029700 12.188100 
